/* XPM */
static char * brain_mri_small_xpm[] = {
"30 30 677 2",
"  	c None",
". 	c #000000",
"+ 	c #1E0400",
"@ 	c #370B00",
"# 	c #4D0E00",
"$ 	c #430E00",
"% 	c #300800",
"& 	c #0F0100",
"* 	c #290700",
"= 	c #7F1800",
"- 	c #981B00",
"; 	c #7B0F00",
"> 	c #610400",
", 	c #600200",
"' 	c #750A00",
") 	c #931700",
"! 	c #831100",
"~ 	c #4C1000",
"{ 	c #0B0200",
"] 	c #1C0500",
"^ 	c #7D1800",
"/ 	c #931800",
"( 	c #1E0300",
"_ 	c #080000",
": 	c #0E0000",
"< 	c #290000",
"[ 	c #1F0200",
"} 	c #4B0300",
"| 	c #8A0E00",
"1 	c #6F1600",
"2 	c #170500",
"3 	c #070000",
"4 	c #561300",
"5 	c #A01E00",
"6 	c #6F1700",
"7 	c #180100",
"8 	c #350A00",
"9 	c #681200",
"0 	c #690B00",
"a 	c #791100",
"b 	c #961800",
"c 	c #7C0900",
"d 	c #861600",
"e 	c #6A1100",
"f 	c #390300",
"g 	c #120000",
"h 	c #510E00",
"i 	c #911A00",
"j 	c #4F1400",
"k 	c #040000",
"l 	c #831C00",
"m 	c #A82A00",
"n 	c #722300",
"o 	c #170300",
"p 	c #630700",
"q 	c #A42500",
"r 	c #BC4501",
"s 	c #B94300",
"t 	c #F59507",
"u 	c #EE8900",
"v 	c #B04900",
"w 	c #A43800",
"x 	c #AD3600",
"y 	c #6C0500",
"z 	c #550600",
"A 	c #1E0800",
"B 	c #2E0A00",
"C 	c #8E2100",
"D 	c #731700",
"E 	c #0B0300",
"F 	c #701600",
"G 	c #A72A00",
"H 	c #3B0D00",
"I 	c #0C0100",
"J 	c #881400",
"K 	c #9B2100",
"L 	c #A53700",
"M 	c #E57D01",
"N 	c #E27600",
"O 	c #F99807",
"P 	c #F7960C",
"Q 	c #ED8B0E",
"R 	c #E8830B",
"S 	c #EE8C0F",
"T 	c #C95900",
"U 	c #9F3A00",
"V 	c #953100",
"W 	c #300000",
"X 	c #200701",
"Y 	c #882401",
"Z 	c #8E2600",
"` 	c #0C0200",
" .	c #380D00",
"..	c #A32300",
"+.	c #421400",
"@.	c #260200",
"#.	c #A73000",
"$.	c #DD7405",
"%.	c #D86F05",
"&.	c #D16A04",
"*.	c #F89B0E",
"=.	c #E68005",
"-.	c #E27802",
";.	c #EC890A",
">.	c #F28F0D",
",.	c #E47E10",
"'.	c #F79818",
").	c #C14F00",
"!.	c #EA8C10",
"~.	c #A63F00",
"{.	c #480700",
"].	c #230400",
"^.	c #752702",
"/.	c #8E2900",
"(.	c #711200",
"_.	c #761800",
":.	c #100000",
"<.	c #590D00",
"[.	c #AA3B00",
"}.	c #C45302",
"|.	c #ED9013",
"1.	c #D16304",
"2.	c #B84600",
"3.	c #E68302",
"4.	c #DD7404",
"5.	c #DC7303",
"6.	c #F99E14",
"7.	c #D76F09",
"8.	c #E68511",
"9.	c #FBA51F",
"0.	c #DE7604",
"a.	c #F9AC2D",
"b.	c #E9890F",
"c.	c #872100",
"d.	c #580B00",
"e.	c #1E0201",
"f.	c #843405",
"g.	c #752300",
"h.	c #8B1400",
"i.	c #340400",
"j.	c #651900",
"k.	c #B53800",
"l.	c #C34B00",
"m.	c #D26300",
"n.	c #DF7707",
"o.	c #C54F00",
"p.	c #D46B04",
"q.	c #C85702",
"r.	c #DB6F02",
"s.	c #CC5A00",
"t.	c #EB8A0D",
"u.	c #D05F01",
"v.	c #D56502",
"w.	c #F59E1D",
"x.	c #F19C21",
"y.	c #FEB12B",
"z.	c #FAAC2D",
"A.	c #DF7C0D",
"B.	c #C65900",
"C.	c #661700",
"D.	c #190300",
"E.	c #8E3000",
"F.	c #381100",
"G.	c #2C0A00",
"H.	c #7F1200",
"I.	c #270300",
"J.	c #CB5B03",
"K.	c #DE740A",
"L.	c #DA700C",
"M.	c #EE9013",
"N.	c #CC5600",
"O.	c #CE5D03",
"P.	c #E68109",
"Q.	c #C44B00",
"R.	c #BC3F00",
"S.	c #CA5802",
"T.	c #E37A06",
"U.	c #C35102",
"V.	c #CA5A00",
"W.	c #CB5802",
"X.	c #E37D08",
"Y.	c #FEB336",
"Z.	c #FCB12F",
"`.	c #EC921F",
" +	c #D86F01",
".+	c #782000",
"++	c #320E00",
"@+	c #942E00",
"#+	c #060200",
"$+	c #5D1000",
"%+	c #561000",
"&+	c #420600",
"*+	c #E0780C",
"=+	c #EC8D0D",
"-+	c #CF5C02",
";+	c #C65001",
">+	c #D76504",
",+	c #D26203",
"'+	c #CA5403",
")+	c #CB5600",
"!+	c #DF7903",
"~+	c #E8830C",
"{+	c #F19310",
"]+	c #FDA61A",
"^+	c #F9A51F",
"/+	c #DB720A",
"(+	c #D76B02",
"_+	c #D46806",
":+	c #FDB535",
"<+	c #FDB941",
"[+	c #FFC24A",
"}+	c #F6A930",
"|+	c #A93B00",
"1+	c #320300",
"2+	c #5D2304",
"3+	c #4C1400",
"4+	c #761400",
"5+	c #3B0B00",
"6+	c #620E00",
"7+	c #C04A00",
"8+	c #E17907",
"9+	c #DE7306",
"0+	c #E8850C",
"a+	c #C64C00",
"b+	c #C65402",
"c+	c #C75101",
"d+	c #CA5600",
"e+	c #E17F04",
"f+	c #FAA614",
"g+	c #F99D12",
"h+	c #FDAB24",
"i+	c #FFAC24",
"j+	c #FFB02F",
"k+	c #F69C1F",
"l+	c #D06001",
"m+	c #D56A00",
"n+	c #DE7710",
"o+	c #FFBC46",
"p+	c #FAB642",
"q+	c #E7850B",
"r+	c #6E2800",
"s+	c #3B0200",
"t+	c #8E370B",
"u+	c #030000",
"v+	c #090100",
"w+	c #AB2F00",
"x+	c #140000",
"y+	c #9F3D00",
"z+	c #E17702",
"A+	c #D96E04",
"B+	c #DE7701",
"C+	c #C65000",
"D+	c #C44C00",
"E+	c #CF5D01",
"F+	c #F5960A",
"G+	c #E47F04",
"H+	c #E27E07",
"I+	c #F79A0B",
"J+	c #F7A11B",
"K+	c #FDA920",
"L+	c #FEA91D",
"M+	c #FEAE25",
"N+	c #EE9116",
"O+	c #DC710A",
"P+	c #D06302",
"Q+	c #F9AF36",
"R+	c #FFBE46",
"S+	c #EF9F2B",
"T+	c #B54600",
"U+	c #200100",
"V+	c #5B1B04",
"W+	c #310E00",
"X+	c #501100",
"Y+	c #7F1B00",
"Z+	c #2E0900",
"`+	c #D96F04",
" @	c #DC7705",
".@	c #C64D00",
"+@	c #CD5900",
"@@	c #E07D07",
"#@	c #D16100",
"$@	c #D25F02",
"%@	c #D76A08",
"&@	c #E88209",
"*@	c #E5890F",
"=@	c #7B3608",
"-@	c #410D00",
";@	c #340000",
">@	c #511A06",
",@	c #A55C16",
"'@	c #F4A124",
")@	c #FEAD1B",
"!@	c #FFAC27",
"~@	c #D66605",
"{@	c #E78F1C",
"]@	c #FDBA47",
"^@	c #FEC34A",
"/@	c #D16B0D",
"(@	c #7A2E00",
"_@	c #3A0A00",
":@	c #6C1E00",
"<@	c #731200",
"[@	c #511302",
"}@	c #7C3700",
"|@	c #F49407",
"1@	c #D76702",
"2@	c #E58204",
"3@	c #CF5C00",
"4@	c #C24900",
"5@	c #C85400",
"6@	c #DD7001",
"7@	c #FBA214",
"8@	c #F99F0E",
"9@	c #5C1401",
"0@	c #872200",
"a@	c #A63A00",
"b@	c #812000",
"c@	c #370000",
"d@	c #5F2105",
"e@	c #E49621",
"f@	c #FFB32F",
"g@	c #E17E0E",
"h@	c #CD5E03",
"i@	c #D8700D",
"j@	c #FFBE43",
"k@	c #F09E31",
"l@	c #D56E09",
"m@	c #1C0200",
"n@	c #7F2304",
"o@	c #8E2700",
"p@	c #330100",
"q@	c #B56102",
"r@	c #F39205",
"s@	c #E07402",
"t@	c #DE6E02",
"u@	c #CF5F00",
"v@	c #E07800",
"w@	c #BF4400",
"x@	c #F69707",
"y@	c #D17205",
"z@	c #CB5302",
"A@	c #CC5B00",
"B@	c #E27700",
"C@	c #E17602",
"D@	c #7A1400",
"E@	c #C65600",
"F@	c #561600",
"G@	c #581706",
"H@	c #F7A831",
"I@	c #FAA824",
"J@	c #E17A0A",
"K@	c #DB730E",
"L@	c #FCBC41",
"M@	c #E28E25",
"N@	c #B74300",
"O@	c #280300",
"P@	c #8D3800",
"Q@	c #8D1C00",
"R@	c #350400",
"S@	c #E47E02",
"T@	c #DF7207",
"U@	c #D66502",
"V@	c #C05100",
"W@	c #C75700",
"X@	c #B74100",
"Y@	c #941F00",
"Z@	c #720900",
"`@	c #BF5104",
" #	c #902700",
".#	c #BD4600",
"+#	c #DC7400",
"@#	c #DF7700",
"##	c #D46400",
"$#	c #D05F00",
"%#	c #C55300",
"&#	c #440B00",
"*#	c #CD7C24",
"=#	c #FFAF2C",
"-#	c #EF9316",
";#	c #C55000",
">#	c #EB9124",
",#	c #F8A723",
"'#	c #E47E0E",
")#	c #2F0400",
"!#	c #953805",
"~#	c #8E1B00",
"{#	c #6B2C00",
"]#	c #E57E04",
"^#	c #C55302",
"/#	c #CD6100",
"(#	c #D96C00",
"_#	c #CD6000",
":#	c #4D0100",
"<#	c #4C0100",
"[#	c #620400",
"}#	c #650B00",
"|#	c #B44000",
"1#	c #D76B00",
"2#	c #E47900",
"3#	c #E58102",
"4#	c #CB5700",
"5#	c #CA5800",
"6#	c #9E3E03",
"7#	c #F5A123",
"8#	c #FDA518",
"9#	c #E07205",
"0#	c #CA5703",
"a#	c #E38216",
"b#	c #F6A42D",
"c#	c #D16503",
"d#	c #290300",
"e#	c #8F3C06",
"f#	c #050000",
"g#	c #891C00",
"h#	c #733400",
"i#	c #E57E02",
"j#	c #D05C02",
"k#	c #D86800",
"l#	c #CF5A00",
"m#	c #B83D00",
"n#	c #801200",
"o#	c #780600",
"p#	c #962C00",
"q#	c #3D0100",
"r#	c #863000",
"s#	c #D36500",
"t#	c #DA7000",
"u#	c #E27800",
"v#	c #E07600",
"w#	c #DC7000",
"x#	c #C34C00",
"y#	c #BB4800",
"z#	c #F39406",
"A#	c #CB5803",
"B#	c #B33500",
"C#	c #C14E02",
"D#	c #F49E1A",
"E#	c #A73402",
"F#	c #852500",
"G#	c #923A05",
"H#	c #140500",
"I#	c #801E02",
"J#	c #441900",
"K#	c #C14B00",
"L#	c #D76A00",
"M#	c #D46500",
"N#	c #BC3E00",
"O#	c #7C0F00",
"P#	c #A93100",
"Q#	c #AA2E00",
"R#	c #A01300",
"S#	c #6B0E00",
"T#	c #CA5B00",
"U#	c #DF7500",
"V#	c #DB6F00",
"W#	c #B74000",
"X#	c #D36300",
"Y#	c #D46200",
"Z#	c #B32900",
"`#	c #BE3F01",
" $	c #DE7507",
".$	c #FEB122",
"+$	c #FBA71B",
"@$	c #CD5A03",
"#$	c #651600",
"$$	c #812D02",
"%$	c #240500",
"&$	c #8E2A00",
"*$	c #A83700",
"=$	c #C85700",
"-$	c #952600",
";$	c #931C00",
">$	c #A12E00",
",$	c #BA3D00",
"'$	c #9C2400",
")$	c #801000",
"!$	c #CB5400",
"~$	c #CC5D00",
"{$	c #D86700",
"]$	c #6E1300",
"^$	c #882300",
"/$	c #9D1D00",
"($	c #C44B01",
"_$	c #DB6C00",
":$	c #CF6000",
"<$	c #D76C02",
"[$	c #CE5E03",
"}$	c #C65205",
"|$	c #E07304",
"1$	c #C65702",
"2$	c #300B00",
"3$	c #691600",
"4$	c #250500",
"5$	c #752A00",
"6$	c #500B01",
"7$	c #741900",
"8$	c #C95700",
"9$	c #9F2800",
"0$	c #A42600",
"a$	c #951600",
"b$	c #B73B00",
"c$	c #AB2A00",
"d$	c #881600",
"e$	c #C85000",
"f$	c #C75500",
"g$	c #CC5800",
"h$	c #A53B00",
"i$	c #520800",
"j$	c #3A0100",
"k$	c #7E2100",
"l$	c #B13402",
"m$	c #A81F00",
"n$	c #980D00",
"o$	c #A11500",
"p$	c #A02100",
"q$	c #7F2500",
"r$	c #631C00",
"s$	c #3A0E00",
"t$	c #010000",
"u$	c #7F1700",
"v$	c #120300",
"w$	c #391000",
"x$	c #5B1D03",
"y$	c #300300",
"z$	c #7D0800",
"A$	c #972C06",
"B$	c #AF2D00",
"C$	c #A01900",
"D$	c #BB4300",
"E$	c #B93E00",
"F$	c #932300",
"G$	c #C14700",
"H$	c #BC4700",
"I$	c #AE3E00",
"J$	c #3A0000",
"K$	c #670200",
"L$	c #982C00",
"M$	c #5A0A00",
"N$	c #150000",
"O$	c #330200",
"P$	c #440600",
"Q$	c #200300",
"R$	c #210100",
"S$	c #902600",
"T$	c #741500",
"U$	c #080100",
"V$	c #9A2901",
"W$	c #270000",
"X$	c #640F00",
"Y$	c #750901",
"Z$	c #821400",
"`$	c #9E2300",
" %	c #AA2A00",
".%	c #A93600",
"+%	c #4C0B00",
"@%	c #2D0200",
"#%	c #BC4000",
"$%	c #BD4700",
"%%	c #B83E00",
"&%	c #A23600",
"*%	c #4F0100",
"=%	c #521600",
"-%	c #150100",
";%	c #020000",
">%	c #0A0000",
",%	c #7F0B00",
"'%	c #7B1C00",
")%	c #0E0200",
"!%	c #941B02",
"~%	c #210000",
"{%	c #3F0600",
"]%	c #530200",
"^%	c #610300",
"/%	c #9C1B00",
"(%	c #851100",
"_%	c #480300",
":%	c #350200",
"<%	c #AD2500",
"[%	c #B43400",
"}%	c #AC2500",
"|%	c #661800",
"1%	c #4D0000",
"2%	c #250000",
"3%	c #170200",
"4%	c #2E0000",
"5%	c #760600",
"6%	c #060000",
"7%	c #8B1301",
"8%	c #400400",
"9%	c #430300",
"0%	c #950900",
"a%	c #9B0F00",
"b%	c #9B1500",
"c%	c #8D0E00",
"d%	c #560A00",
"e%	c #A91F00",
"f%	c #AF2600",
"g%	c #A51F00",
"h%	c #350000",
"i%	c #2C0100",
"j%	c #1C0000",
"k%	c #0C0000",
"l%	c #3A0300",
"m%	c #720600",
"n%	c #700900",
"o%	c #230000",
"p%	c #1E0000",
"q%	c #380100",
"r%	c #8C0700",
"s%	c #8F0800",
"t%	c #7E0A00",
"u%	c #760900",
"v%	c #9F0F00",
"w%	c #961000",
"x%	c #440500",
"y%	c #2B0000",
"z%	c #140200",
"A%	c #200200",
"B%	c #500200",
"C%	c #0F0000",
"D%	c #1D0000",
"E%	c #350100",
"F%	c #1B0000",
"G%	c #891500",
"H%	c #770900",
"I%	c #2F0000",
"J%	c #7F0200",
"K%	c #390000",
"L%	c #880400",
"M%	c #980700",
"N%	c #540700",
"O%	c #170000",
"P%	c #1A0000",
"Q%	c #430200",
"R%	c #270100",
"S%	c #3C0000",
"T%	c #590000",
"U%	c #480000",
"V%	c #500100",
"W%	c #520900",
"X%	c #7E0400",
"Y%	c #110100",
"Z%	c #6D0400",
"`%	c #5C0000",
" &	c #3B0100",
".&	c #940300",
"+&	c #8D0200",
"@&	c #4D0800",
"#&	c #180000",
"$&	c #6B0000",
"%&	c #6A0000",
"&&	c #3D0000",
"*&	c #570000",
"=&	c #620000",
"-&	c #500000",
";&	c #6B0100",
">&	c #7D0000",
",&	c #4D0300",
"'&	c #890600",
")&	c #540100",
"!&	c #4B0000",
"~&	c #5F0000",
"{&	c #640000",
"]&	c #560000",
"^&	c #590100",
"/&	c #880100",
"(&	c #460000",
"_&	c #3D0800",
":&	c #630000",
"<&	c #580021",
"[&	c #670000",
"}&	c #610000",
"|&	c #450000",
"1&	c #6C0000",
"2&	c #5E0200",
"3&	c #690100",
"4&	c #5E0000",
". . . . . . . . . . + @ # $ % & . . . . . . . . . . . . . . ",
". . . . . . . . * = - ; > , ' ) ! ~ { . . . . . . . . . . . ",
". . . . . . ] ^ / @ ( _ : : < _ [ } | 1 2 . . . . . . . . . ",
". . . . 3 4 5 6 7 8 9 0 a b c d e f g h i j k . . . . . . . ",
". . . _ l m n o p q r s t u v w x y z A B C D E . . . . . . ",
". . . F G H I J K L M N O P Q R S T U V W X Y Z ` . . . . . ",
". .  ...+.@.F #.$.%.&.*.=.-.;.>.,.'.).!.~.{.].^./.E . . . . ",
". . (._.:.<.[.}.|.1.2.3.4.5.6.7.8.9.0.a.b.c.d.e.f.g.. . . . ",
". . h.i.j.k.l.m.n.o.p.q.r.s.t.u.v.w.x.y.z.A.B.C.D.E.F.. . . ",
". G.H.I.J.K.L.M.N.O.P.Q.R.S.o.T.U.V.W.X.Y.Z.`. +.+++@+#+. . ",
". $+%+&+*+=+-+;+>+,+'+)+!+~+{+]+^+/+(+_+:+<+[+}+|+1+2+3+. . ",
". 4+5+6+7+8+9+0+a+b+c+d+e+f+g+h+i+j+k+l+m+n+o+p+q+r+s+t+u+. ",
"v+w+x+y+z+l.A+B+C+D+E+F+G+H+I+J+K+L+M+N+O+P+Q+R+S+T+U+V+W+. ",
"X+Y+Z+`+ @.@+@@@#@$@%@&@*@=@-@;@>@,@'@)@!@~@{@]@^@/@(@_@:@. ",
"<@[@}@|@1@2@3@4@5@6@7@8@9@0@a@b@c@W d@e@f@g@h@i@j@k@l@m@n@. ",
"o@p@q@r@s@t@u@v@w@}.x@y@z@A@B@C@D@E@F@G@H@I@J@K@L@M@N@O@P@. ",
"Q@R@S@T@U@V@W@X@Y@Z@`@ #.#s.+#@###$#%#&#*#=#-#;#>#,#'#)#!#. ",
"~#{#]#^#/#(#_#b :#<#[#}#|#V.1#2#3#4#5#6#7#8#9#0#a#b#c#d#e#f#",
"g#h#i#j#k#l#m#n#o#p#q#r#s#t#u#v#w#x#y#P.z#A#B#C#D#E#F#_ G#H#",
"I#J#K#L#M#N#O#P#Q#R#S#T#L#U#V##@2.W#X#Y#Z#`# $.$+$@$#$. $$%$",
"&$< *$=$o.-$;$>$,$'$)$!$~$s#{$]$^$/$($_$:$<$[$}$|$1$2$. 3$4$",
"5$6$7$8$~#9$0$a$b$c$d$e$f$g$h$i$j$k$l$m$n$o$p$q$r$s$. t$u$v$",
"w$x$y$z$A$B$..C$D$E$F$G$H$D+I$J$K$L$M$N$O$P$Q$. . . R$S$T$. ",
"U$V$W$X$Y$Z$`$ %.%+%@%#%$%%%&%*%c@=%-%. t$. f#;%;%>%,%'%)%. ",
". !%~%{%]%^%/%C$(%_%:%<%[%}%|%1%2%. . . >%;%f#_ 3%4%5%6%. . ",
"u+7%: ~%8%9%0%a%b%c%d%e%f%g%p@h%t$. . t$i%j%. k%l%~%m%. . . ",
"k%n%. o%p%N$q%r%s%t%u%v%w%x%y%: ;%. z%A%B%C%D%x%E%F%G%8%t$. ",
"3 H%p%g N$p%: I%J%K%L%M%N%W$O%k%P%Q%R%Q%S%~%J$T%U%V%W%X%Y%. ",
". Z%`% &P%x+: g :.O$.&+&@&k%#&J$$&%&~%&&*&=&-&K%;&>&,&'&)&. ",
". !&~&{&]&#&_ k%u+^&/&(&o%_&:&<&[&}&K%*&|&K%W$j%g 1&2&3&4&p%"};
